<svg xmlns="http://www.w3.org/2000/svg" xmlns:xlink="http://www.w3.org/1999/xlink" version="1.0" x="0" y="0" width="2400" height="503.54686138714607" viewBox="37.59666625976563 97.22030059814453 264.8066674804688 55.5594026184082" preserveAspectRatio="xMidYMid meet" color-interpolation-filters="sRGB"><g><defs><linearGradient id="92" x1="0%" y1="0%" x2="100%" y2="0%"><stop offset="0%" stop-color="#fa71cd"></stop> <stop offset="100%" stop-color="#9b59b6"></stop></linearGradient><linearGradient id="93" x1="0%" y1="0%" x2="100%" y2="0%"><stop offset="0%" stop-color="#f9d423"></stop> <stop offset="100%" stop-color="#f83600"></stop></linearGradient><linearGradient id="94" x1="0%" y1="0%" x2="100%" y2="0%"><stop offset="0%" stop-color="#0064d2"></stop> <stop offset="100%" stop-color="#1cb0f6"></stop></linearGradient><linearGradient id="95" x1="0%" y1="0%" x2="100%" y2="0%"><stop offset="0%" stop-color="#f00978"></stop> <stop offset="100%" stop-color="#3f51b1"></stop></linearGradient><linearGradient id="96" x1="0%" y1="0%" x2="100%" y2="0%"><stop offset="0%" stop-color="#7873f5"></stop> <stop offset="100%" stop-color="#ec77ab"></stop></linearGradient><linearGradient id="97" x1="0%" y1="0%" x2="100%" y2="0%"><stop offset="0%" stop-color="#f9d423"></stop> <stop offset="100%" stop-color="#e14fad"></stop></linearGradient><linearGradient id="98" x1="0%" y1="0%" x2="100%" y2="0%"><stop offset="0%" stop-color="#009efd"></stop> <stop offset="100%" stop-color="#2af598"></stop></linearGradient><linearGradient id="99" x1="0%" y1="0%" x2="100%" y2="0%"><stop offset="0%" stop-color="#ffcc00"></stop> <stop offset="100%" stop-color="#00b140"></stop></linearGradient><linearGradient id="100" x1="0%" y1="0%" x2="100%" y2="0%"><stop offset="0%" stop-color="#d51007"></stop> <stop offset="100%" stop-color="#ff8177"></stop></linearGradient><linearGradient id="102" x1="0%" y1="0%" x2="100%" y2="0%"><stop offset="0%" stop-color="#a2b6df"></stop> <stop offset="100%" stop-color="#0c3483"></stop></linearGradient><linearGradient id="103" x1="0%" y1="0%" x2="100%" y2="0%"><stop offset="0%" stop-color="#7ac5d8"></stop> <stop offset="100%" stop-color="#eea2a2"></stop></linearGradient><linearGradient id="104" x1="0%" y1="0%" x2="100%" y2="0%"><stop offset="0%" stop-color="#00ecbc"></stop> <stop offset="100%" stop-color="#007adf"></stop></linearGradient><linearGradient id="105" x1="0%" y1="0%" x2="100%" y2="0%"><stop offset="0%" stop-color="#b88746"></stop> <stop offset="100%" stop-color="#fdf5a6"></stop></linearGradient></defs><g fill="#444" class="icon-text-wrapper icon-svg-group iconsvg" transform="translate(40.192810072658745,99.81644248962402)"><g class="iconsvg-imagesvg" transform="translate(0,0)"><g><rect fill="#444" fill-opacity="0" stroke-width="2" x="0" y="0" width="87.60000000000002" height="50.36711648258139" class="image-rect"></rect> <svg filter="url(#colors9236951222)" x="0" y="0" width="87.60000000000002" height="50.36711648258139" filtersec="colorsf9050670285" class="image-svg-svg primary" style="overflow: visible;"><svg xmlns="http://www.w3.org/2000/svg" viewBox="0.9341481924057007 1.3592090606689453 742.4625854492188 426.8907775878906"><path fill="#064a71" d="M 187.95 269.39 C 209.84 274.11 230.04 267.89 244.32 251.19 Q 248.82 245.92 253.81 248.25 Q 256.02 249.29 259.10 252.85 Q 268.43 263.66 277.60 273.85 C 281.26 277.91 284.81 282.61 280.19 287.82 Q 268.11 301.46 251.90 311.11 Q 246.23 314.49 238.33 317.24 Q 225.03 321.86 210.62 323.46 C 190.05 325.74 167.11 320.64 149.42 309.61 Q 131.32 298.32 118.80 281.62 Q 104.58 262.66 99.83 243.77 Q 97.23 233.41 96.35 219.33 Q 95.71 209.09 97.48 197.97 Q 104.03 156.97 134.89 129.56 Q 148.24 117.71 168.45 110.77 Q 192.37 102.55 217.15 106.17 Q 226.81 107.57 239.09 112.02 C 255.27 117.87 269.46 128.64 281.21 141.53 Q 291.37 152.67 301.22 163.93 Q 329.38 196.11 358.00 228.47 C 364.97 236.35 371.90 244.56 378.98 252.27 Q 398.74 273.77 416.49 294.41 Q 434.28 315.10 447.16 329.28 Q 477.88 363.10 523.55 371.04 C 529.25 372.03 535.22 372.21 541.15 372.54 Q 544.42 372.72 547.77 372.52 Q 560.00 371.78 571.90 369.13 Q 597.73 363.38 619.37 348.26 Q 626.64 343.18 632.70 338.04 Q 644.31 328.20 656.05 313.48 Q 661.97 306.07 666.80 297.57 C 676.38 280.74 682.69 263.98 686.90 245.58 C 690.99 227.74 690.87 208.83 688.48 190.69 C 685.96 171.60 678.90 151.59 669.96 135.44 Q 658.41 114.58 641.47 98.29 Q 607.35 65.50 561.84 58.29 Q 553.56 56.98 540.72 56.89 Q 535.73 56.85 530.82 57.42 C 526.08 57.98 521.58 58.04 516.81 59.10 Q 493.15 64.35 472.40 76.16 Q 456.47 85.22 442.20 99.82 Q 427.14 115.23 412.20 130.64 Q 408.69 134.26 405.57 138.08 Q 402.38 141.99 405.74 145.75 Q 424.53 166.75 442.32 187.29 C 457.34 204.63 472.97 221.47 488.02 238.70 Q 494.99 246.67 501.56 253.43 Q 523.78 276.25 555.45 269.49 Q 567.12 267.00 576.36 258.55 Q 595.42 241.12 595.81 215.29 Q 595.91 208.73 594.59 201.22 C 592.80 191.11 588.18 181.80 580.85 174.40 Q 563.79 157.18 538.90 157.79 Q 522.47 158.19 507.31 168.58 C 503.48 171.21 499.96 174.80 496.59 178.20 C 493.81 181.01 490.16 181.52 487.38 178.43 Q 475.22 164.95 462.99 151.16 C 456.28 143.60 460.81 138.92 466.88 133.89 C 477.36 125.20 489.40 116.79 502.06 112.34 Q 514.14 108.09 523.50 106.50 C 537.71 104.09 554.10 104.36 568.66 108.35 Q 602.99 117.75 625.01 146.69 C 646.36 174.74 652.61 211.51 643.52 245.49 Q 635.36 275.98 611.01 298.26 C 602.27 306.26 589.62 313.73 579.15 317.36 Q 565.50 322.10 552.81 323.59 C 544.86 324.52 535.28 324.34 527.03 322.93 Q 494.04 317.29 470.84 293.85 C 461.35 284.25 452.26 273.41 442.88 263.15 Q 427.38 246.18 412.35 229.37 C 403.77 219.78 394.83 209.08 386.77 199.96 Q 348.18 156.31 309.96 113.44 Q 303.73 106.45 296.20 98.42 Q 288.21 89.91 281.59 84.75 Q 256.70 65.38 225.59 59.35 Q 219.70 58.20 214.33 57.78 C 205.53 57.08 197.67 56.62 188.39 57.52 Q 180.59 58.27 173.85 59.81 C 144.81 66.41 116.59 82.11 96.70 104.57 Q 80.88 122.44 70.99 142.20 C 66.68 150.81 62.54 161.69 60.02 171.57 C 54.32 193.94 52.71 218.74 56.81 241.82 C 65.88 292.91 98.45 338.25 145.54 360.14 Q 169.84 371.43 198.51 372.68 C 203.21 372.89 207.61 372.08 212.26 371.92 Q 214.89 371.83 217.78 371.41 Q 261.61 365.06 292.97 333.20 Q 298.90 327.17 304.01 321.15 Q 306.31 318.43 308.24 317.83 C 312.56 316.50 316.23 319.09 318.97 322.38 Q 326.34 331.16 334.33 339.56 Q 338.85 344.31 342.81 349.32 C 345.41 352.59 343.96 356.80 341.57 359.75 Q 327.99 376.60 312.17 389.50 C 292.22 405.76 267.72 417.02 242.88 423.13 Q 228.95 426.56 213.62 427.64 Q 185.91 429.60 161.36 423.64 Q 144.02 419.43 125.64 411.25 Q 84.90 393.14 55.31 358.98 C 47.66 350.15 40.51 341.18 34.41 331.09 Q 30.04 323.87 26.47 317.20 Q 1.85 271.12 0.97 218.71 Q 0.31 179.32 11.80 145.55 Q 13.97 139.17 16.58 132.50 C 22.20 118.08 29.89 103.97 38.33 91.51 C 42.16 85.86 46.59 80.61 50.86 75.34 C 61.76 61.90 74.19 50.65 87.54 40.19 Q 105.44 26.17 131.26 15.84 Q 158.21 5.06 186.00 2.20 C 198.71 0.89 214.03 1.30 227.63 3.52 Q 254.40 7.89 278.20 18.94 Q 294.73 26.63 307.35 36.77 C 314.76 42.73 321.85 48.98 328.09 55.84 C 335.81 64.32 344.21 74.88 353.23 83.41 C 360.20 90.01 369.46 92.43 377.93 86.81 Q 384.11 82.70 388.67 77.87 Q 396.83 69.22 405.62 60.23 Q 415.02 50.62 429.33 39.47 C 452.37 21.53 480.47 10.29 508.65 4.60 Q 527.64 0.76 548.98 1.47 Q 559.00 1.80 568.79 3.39 C 611.78 10.37 652.23 30.78 682.45 62.52 Q 727.65 110.00 739.80 174.34 Q 744.76 200.59 742.88 229.12 Q 740.22 269.48 722.79 307.67 Q 720.11 313.54 716.21 320.38 C 713.13 325.80 710.18 331.18 706.67 336.40 Q 677.76 379.28 633.59 404.28 C 618.73 412.68 601.84 419.01 585.46 423.11 Q 574.49 425.86 559.56 427.49 Q 549.05 428.63 534.54 428.06 Q 529.69 427.87 524.50 427.15 C 520.14 426.54 515.58 426.07 511.20 425.18 C 477.10 418.32 445.66 402.48 420.80 378.09 Q 415.14 372.53 407.44 363.41 C 394.49 348.09 381.64 332.59 368.30 317.58 C 355.21 302.86 342.13 288.20 329.40 273.23 Q 309.48 249.83 282.96 219.57 Q 266.40 200.68 250.58 182.78 C 241.25 172.21 229.89 162.94 216.22 159.72 C 203.07 156.63 188.81 157.34 176.90 163.96 C 155.62 175.80 146.82 197.35 148.69 220.96 C 150.46 243.35 165.29 264.50 187.95 269.39 Z"></path></svg></svg> <defs><filter id="colors9236951222"><feColorMatrix type="matrix" values="0 0 0 0 0.265625  0 0 0 0 0.265625  0 0 0 0 0.265625  0 0 0 1 0" class="icon-feColorMatrix "></feColorMatrix></filter> <filter id="colorsf9050670285"><feColorMatrix type="matrix" values="0 0 0 0 0.99609375  0 0 0 0 0.99609375  0 0 0 0 0.99609375  0 0 0 1 0" class="icon-fecolormatrix"></feColorMatrix></filter> <filter id="colorsb7514185661"><feColorMatrix type="matrix" values="0 0 0 0 0  0 0 0 0 0  0 0 0 0 0  0 0 0 1 0" class="icon-fecolormatrix"></feColorMatrix></filter></defs></g></g> <g transform="translate(99.98559951782227,6.367115020751953)"><g fill-rule="" class="tp-name iconsvg-namesvg" transform="translate(0,0)"><g transform="scale(0.9599999999999997)"><g><path d="M2.9-24.5L11.9-24.5 9.28-6.11 23.92-6.11 23.56-2.35 4.03-2.35Q2.9-2.35 2.33-3.09 1.76-3.84 1.76-4.97L1.76-4.97 4.03-23.02 2.9-24.5ZM28.54-18.87L45.45-18.87Q46.58-18.87 47.15-17.95 47.72-17.03 47.72-15.89L47.72-15.89 45.84-2.35 28.93-2.35Q27.79-2.35 27.22-3.09 26.66-3.84 26.66-4.97L26.66-4.97 28.54-18.87ZM40.2-15.11L35.66-15.11 34.17-6.11 38.67-6.11 40.2-15.11ZM52.73-18.87L69.64-18.87Q70.77-18.87 71.34-17.95 71.91-17.03 71.91-15.89L71.91-15.89 70.03-2.35 53.12-2.35Q51.98-2.35 51.41-3.09 50.85-3.84 50.85-4.97L50.85-4.97 52.73-18.87ZM64.39-15.11L59.85-15.11 58.36-6.11 62.86-6.11 64.39-15.11ZM77.43-18.87L98.09-18.87 96.21-4.97Q96.14-4.38 95.82-3.91 95.51-3.44 95.06-3.09 94.61-2.74 94.12-2.54 93.63-2.35 93.2-2.35L93.2-2.35 83.85-2.35 82.55 5.87 75.04 5.87 78.52-17.73 77.43-18.87ZM90.19-15.11L85.69-15.11 84.28-5.75 88.82-5.75 90.19-15.11ZM103.3-24.5L124.71-24.5 124.36-20.75 111.95-20.75 111.21-15.89 122.83-15.89 122.48-12.13 110.42-12.13 109.68-6.11 122.83-6.11 122.48-2.35 101.42-2.35 104.43-23.02 103.3-24.5ZM135.48-24.5L150.9-24.5 153.87-2.35 147.14-2.35 146.36-8.38 136.96-8.38 134.34-2.35 127.96-2.35 136.61-23.41 135.48-24.5ZM144.87-20.75L142.25-20.75 138.49-12.13 146.01-12.13 144.87-20.75ZM159-24.5L168.04-24.5 164.64-2.35 157.51-2.35 160.14-23.02 159-24.5Z" transform="translate(-1.7599999904632568, 24.5)"></path></g> </g></g> <g fill-rule="" class="tp-slogan iconsvg-slogansvg" fill="#444" transform="translate(5,35.15520095825195)"><rect x="0" height="1" y="3.8199996948242188" width="47.0044002532959"></rect> <rect height="1" y="3.8199996948242188" width="47.0044002532959" x="102.62439918518066"></rect> <g transform="translate(50.0044002532959,0)"><g transform="scale(1)"><path d="M0.96-4.28L1.97-4.28L1.52-1.13L1.90-1.18L2.42-4.92L1.07-4.92L1.55-8.30L5.20-8.30L4.72-4.92L4.10-4.92L3.98-4.02L4.66-4.02L4.50-2.98L3.83-2.98L3.60-1.36L4.44-1.44L4.28-0.32L0.14 0.08L0.30-1.01L0.49-1.02L0.96-4.28ZM10.72-3.89L8.72-3.89L7.91-4.52L6.98-3.89L4.78-3.89L4.93-4.96L6.50-4.96L7.16-5.46L6.71-5.82L6.68-5.78L4.91-5.78L6.31-8.23L6.06-8.53L8.28-8.53L8.02-8.09L10.88-8.09L10.72-6.83L8.87-5.39L9.42-4.96L10.87-4.96L10.72-3.89ZM5.18-3.54L10.26-3.54L9.78-0.11L4.70-0.11L5.18-3.54ZM6.58-1.18L8.17-1.18L8.36-2.47L6.77-2.47L6.58-1.18ZM3.62-7.40L2.86-7.40L2.63-5.78L3.40-5.78L3.62-7.40ZM9.06-7.12L7.45-7.12L7.33-6.91L8.06-6.35L9.06-7.12ZM19.88-8.52L20.06-7.81L20.86-7.81L21.09-8.22L20.84-8.52L23.29-8.52L22.89-7.81L23.76-7.81L23.61-6.80L22.05-6.80L21.80-4.99L23.60-4.99L23.47-4.00L16.33-4.00L16.46-4.99L18.21-4.99L18.46-6.80L16.95-6.80L17.10-7.81L18.03-7.81L17.85-8.52L19.88-8.52ZM16.69-3.66L23.04-3.66L22.53-0.10L16.18-0.10L16.69-3.66ZM15.93-0.55L13.35 0.11L14.07-4.97L13.58-4.97L13.76-6.25L16.26-6.25L15.60-1.52L16.10-1.69L15.93-0.55ZM14.07-8.30L16.00-8.30L16.45-6.71L14.50-6.71L14.07-8.30ZM23.06-5.30L21.92-5.30L22.39-6.48L23.53-6.48L23.06-5.30ZM18.20-5.30L17.07-5.30L16.94-6.48L18.08-6.48L18.20-5.30ZM18.54-2.76L18.45-2.23L20.84-2.23L20.92-2.76L18.54-2.76ZM18.28-1.00L20.67-1.00L20.74-1.51L18.36-1.51L18.28-1.00ZM20-6.80L19.75-4.99L20.26-4.99L20.52-6.80L20-6.80ZM26.62-0.04L27.17-3.95L35.68-3.95L35.13-0.04L26.62-0.04ZM29.34-8.53L29.04-8.09L32.24-8.09L32.06-6.86L30.47-6.86L30.44-6.62L32.04-6.62L31.89-5.50L31.10-5.50L31.85-4.20L29.80-4.20L29.30-5.05L28.58-4.19L26.38-4.19L27.65-5.50L26.42-5.50L26.57-6.62L28.54-6.62L28.58-6.86L28.23-6.86L28.19-6.80L26.57-6.80L27.59-8.36L27.28-8.53L29.34-8.53ZM31.92-4.24L32.49-8.22L36.81-8.22L36.24-4.24L31.92-4.24ZM29.13-2.92L29.06-2.44L33.46-2.44L33.53-2.92L29.13-2.92ZM28.86-1.08L33.27-1.08L33.33-1.51L28.92-1.51L28.86-1.08ZM33.89-5.35L34.72-5.35L34.95-7.04L34.12-7.04L33.89-5.35ZM43.13-5.46L44.21-5.46L44.45-7.19L43.40-7.19L43.56-8.30L49.67-8.30L48.91-2.92L49.25-2.92L49.76-3.37L49.51-1.55L46.86-1.55L47.24-4.32L46.02-4.32L45.65-1.61L43.68-1.61L44.05-4.32L42.96-4.32L43.13-5.46ZM41.57-0.10L39.52-0.10L40.14-1.28L40.70-5.34L40.25-5.34L40.40-6.43L42.91-6.43L42.24-1.61L43.79-1.30L49.49-1.30L49.32-0.10L42.82-0.10L41.75-0.44L41.57-0.10ZM40.68-8.32L42.50-8.32L42.80-6.96L40.98-6.96L40.68-8.32ZM47.65-7.19L46.42-7.19L46.18-5.46L47.41-5.46L47.65-7.19Z" transform="translate(-0.14400000000000002, 8.532)"></path></g></g></g></g></g><defs v-gra="od"></defs></g></svg>